<svg width="243px" height="44px" id="Layer_1" data-name="Layer 1" xmlns="http://www.w3.org/2000/svg" viewBox="0 0 568.71 103.09"><defs><style>.cls-1{fill:#0054a4;}.cls-2{fill:#7ac143;}.cls-3{fill:#444d3e;}</style></defs><path class="cls-1" d="M92.5,30.48,80.42,67.67q2.51-1.24,5.22-2.36a104.66,104.66,0,0,1,16.5-5.19ZM59.32,85.12a53.49,53.49,0,0,1,17-15.26h-38Z" transform="translate(-38.31 -30.48)"/><path class="cls-2" d="M109.27,71.72a44.14,44.14,0,0,1,36.65-2.37h0a60.4,60.4,0,0,0-56.44.2C66,82.11,54.82,108.42,59,133.57l27-20C84.2,94.16,93.34,80.22,109.27,71.72Z" transform="translate(-38.31 -30.48)"/><path class="cls-1" d="M143.52,71.74a36,36,0,0,0-27.43,2.65c-14.3,7.63-21.34,23.7-18.6,39.34L126,133.57s-7.23-21-10-29.53,2.51-23,12.19-28.16c4.62-2.47,10.17-4.87,15.31-4.14Z" transform="translate(-38.31 -30.48)"/><path class="cls-3" d="M159.75,97.82c0,1.27,0,2.11,1.56,2.21.65,0,1.09.06,1.09.52s-.41.47-.66.47c-1,0-2.64-.12-3.67-.12-.53,0-3,.12-3.64.12-.25,0-.65,0-.65-.47s.43-.46,1.09-.52c1.55-.1,1.55-.94,1.55-2.15V83.41c0-.81-.25-.81-.87-.81-1.87,0-3.92,0-5.51,3-.28.5-.43.62-.71.62a.42.42,0,0,1-.41-.4,2.77,2.77,0,0,1,.1-.5l1.27-4.39c.1-.37.19-.56.47-.56s.34.16.37.44c.16.84.72.87,1.4.87h10c3.2,0,3.36-.41,3.58-1,.09-.25.19-.43.43-.43.44,0,.44.5.44,1.24l-.22,3.8c0,.62-.09,1-.5,1-.15,0-.37,0-.49-.68-.53-3-2.06-3-4.08-3-1.77,0-1.93,0-1.93,1Z" transform="translate(-38.31 -30.48)"/><path class="cls-3" d="M168.59,91.66c-.53,0-.81,0-.81,1.64,0,3.49,2.3,6.16,5.51,6.16a5.05,5.05,0,0,0,3.42-1.24c.47-.47.5-.5.68-.5a.27.27,0,0,1,.28.28c0,.47-2.17,3.21-6.13,3.21s-7.21-2.71-7.21-7A7.41,7.41,0,0,1,172,86.59c4.7,0,5.7,3.45,5.7,4.51,0,.56-.35.56-.84.56Zm3.83-1c1.33,0,2.11-.68,2.11-1.49,0-1.84-2.11-1.9-2.58-1.9a3.81,3.81,0,0,0-3.77,3c0,.34.13.34.84.34Z" transform="translate(-38.31 -30.48)"/><path class="cls-3" d="M187.6,92.06,189.31,90c.53-.66.87-1.06.87-1.47s-.25-.56-.87-.59c-.9-.06-1.06-.21-1.06-.5s.38-.37.69-.37,1.21.13,2.67.13,2.4-.13,2.77-.13.66,0,.66.37-.44.47-1.25.56a4.61,4.61,0,0,0-3,1.9l-2.24,2.65c-.09.12-.15.18-.15.31a.45.45,0,0,0,.12.28l4.05,5.32c1.09,1.46,1.61,1.62,2.14,1.71.19,0,.56.09.56.43s-.53.44-.8.44c-.5,0-1-.12-3.55-.12-2.06,0-2.9.12-3.42.12-.28,0-.63,0-.63-.4s.44-.53,1.15-.53c.29,0,1,0,1-.69a2.39,2.39,0,0,0-.62-1.3L186.17,95l-2.09,2.8a3.18,3.18,0,0,0-.77,1.58c0,.34.15.62.87.69,1,.09,1.34.12,1.34.49s-.56.47-.84.47-1.59-.12-3.05-.12c-1.19,0-2.4.12-2.77.12s-.72,0-.72-.44.28-.4.81-.43c1-.09,1.87-.22,3.55-2.12l2.74-3.48c.09-.13.15-.19.15-.28a.48.48,0,0,0-.06-.22l-3.39-4.17c-1.06-1.3-1.84-1.9-2.46-2-1.12-.09-1.24-.09-1.24-.46s.4-.41.84-.41c.62,0,1.86.13,4.26.13,1.9,0,2.46-.13,2.92-.13.16,0,.56,0,.56.41s-.43.46-1.12.52c-.25,0-.65.1-.65.47s.53,1,.62,1.09Z" transform="translate(-38.31 -30.48)"/><path class="cls-3" d="M203.25,89.91c0-1.08-.09-2.58-1.55-2.58-1.81,0-2.49,1.9-2.74,2.62a2.77,2.77,0,0,1-2.33,1.52.64.64,0,0,1-.69-.62c0-1.06,2-4.26,6.69-4.26,2.92,0,3.64,1,3.64,2.27v8.68c0,1,.09,1.74,1,1.74a1.56,1.56,0,0,0,.91-.31c.34-.28.37-.31.53-.31a.3.3,0,0,1,.28.28c0,.74-1.9,2.21-3.27,2.21a2.48,2.48,0,0,1-2.18-1.69c-.28-.59-.34-.59-.44-.59s-.21.13-.21.13c-1.31,1.06-3,2.21-4.39,2.21A2.42,2.42,0,0,1,196,98.59c0-2.27,1.65-3.6,6.44-5.5.75-.31.78-.56.78-1.12Zm0,4.2c0-.31-.19-.34-.34-.34a5.51,5.51,0,0,0-1.71.65c-2,.94-2,2.12-2,2.74,0,1.5.71,2.06,1.4,2.06,1.4,0,2.61-1.12,2.61-3.3Z" transform="translate(-38.31 -30.48)"/><path class="cls-3" d="M209.32,96.85c0-.09,0-.56.44-.56s.49.28.65.87,1.06,3.27,3.58,3.27c1.4,0,3-.93,3-2.55s-1.44-2.37-3.58-3.21c-1.84-.71-4.05-1.58-4.05-3.82,0-1.78,1.4-4.26,5.54-4.26.47,0,2.77.34,3,.34.78.09.78.43.78.93l-.13,1.84c0,.12-.06.49-.37.49s-.37-.06-.56-.65a3.25,3.25,0,0,0-3.11-2.24c-1.34,0-2.49.75-2.49,1.87s.68,1.52,3.82,2.83c1.06.46,3.68,1.52,3.68,4.2,0,2.33-1.9,5-6,5a10.59,10.59,0,0,1-3.92-.87c-.37-.19-.37-.44-.37-1.19Z" transform="translate(-38.31 -30.48)"/><path class="cls-3" d="M231.19,84.63c0-1.28-.37-1.72-1-1.72-.19,0-1.09.25-1.31.25s-.43-.09-.43-.34c0-.87,5.19-1.31,8.09-1.31,4,0,6.25.63,8.24,2a9.57,9.57,0,0,1,4.14,7.75c0,3.33-2.3,9.77-10.42,9.77-.91,0-4.92-.12-5.7-.12-.56,0-3.51.12-3.67.12s-.62,0-.62-.44.47-.49,1.09-.52c1.58-.1,1.58-.94,1.58-2.21Zm3.33,12.53c0,2,.53,3.08,2.93,3.08,4.14,0,7.81-3.82,7.81-8.8,0-3.55-2.09-9.12-8.68-9.12-1.87,0-2.06.75-2.06,2.49Z" transform="translate(-38.31 -30.48)"/><path class="cls-3" d="M254.31,91.66c-.52,0-.81,0-.81,1.64,0,3.49,2.31,6.16,5.51,6.16a5,5,0,0,0,3.42-1.24c.47-.47.5-.5.69-.5a.27.27,0,0,1,.28.28c0,.47-2.18,3.21-6.13,3.21-4.11,0-7.22-2.71-7.22-7a7.42,7.42,0,0,1,7.72-7.59c4.69,0,5.69,3.45,5.69,4.51,0,.56-.34.56-.84.56Zm3.83-1c1.34,0,2.12-.68,2.12-1.49,0-1.84-2.12-1.9-2.59-1.9a3.8,3.8,0,0,0-3.76,3c0,.34.12.34.84.34Z" transform="translate(-38.31 -30.48)"/><path class="cls-3" d="M266.26,92c0-2,0-2.4-1.09-2.43-.49,0-.81,0-.81-.43s.1-.34,1.12-.75a7.69,7.69,0,0,0,2.93-2c.22-.28.37-.41.59-.41s.28.35.28.63V88c0,.32,0,.63.34.63a.87.87,0,0,0,.41-.19c2.27-1.74,3.17-1.83,4-1.83,3.33,0,6.38,2.83,6.38,7.06a7.65,7.65,0,0,1-7.66,7.56,7.78,7.78,0,0,1-2.76-.53,1.54,1.54,0,0,0-.35-.1c-.37,0-.37.35-.37.66v3.27c0,1.27,0,2.08,1.65,2.2.65,0,1.09.07,1.09.53s-.41.44-.65.44c-.41,0-1.5-.13-3.55-.13-2.65,0-3.24.13-3.58.13s-.65,0-.65-.47.46-.46,1.09-.5c1.58-.12,1.58-.93,1.58-2.27Zm3,5.32a2.84,2.84,0,0,0,3,3.11c2.55,0,4.88-2.3,4.88-6.16s-2.43-5.76-5-5.76c-2.89,0-2.89,2-2.89,2.68Z" transform="translate(-38.31 -30.48)"/><path class="cls-3" d="M288.82,89.91c0-1.08-.09-2.58-1.55-2.58-1.81,0-2.49,1.9-2.74,2.62a2.78,2.78,0,0,1-2.34,1.52.64.64,0,0,1-.68-.62c0-1.06,2-4.26,6.69-4.26,2.92,0,3.64,1,3.64,2.27v8.68c0,1,.09,1.74,1,1.74a1.56,1.56,0,0,0,.91-.31c.34-.28.37-.31.52-.31a.29.29,0,0,1,.28.28c0,.74-1.89,2.21-3.26,2.21a2.49,2.49,0,0,1-2.18-1.69c-.28-.59-.34-.59-.44-.59s-.21.13-.21.13c-1.31,1.06-3,2.21-4.39,2.21a2.42,2.42,0,0,1-2.43-2.62c0-2.27,1.65-3.6,6.44-5.5.75-.31.78-.56.78-1.12Zm0,4.2c0-.31-.19-.34-.34-.34a5.51,5.51,0,0,0-1.71.65c-2,.94-2,2.12-2,2.74,0,1.5.71,2.06,1.4,2.06,1.4,0,2.61-1.12,2.61-3.3Z" transform="translate(-38.31 -30.48)"/><path class="cls-3" d="M299.93,88.39c0,.19,0,.44.19.44s.25-.19.28-.25a5.12,5.12,0,0,1,3.39-1.87A2,2,0,0,1,306,88.58a1.8,1.8,0,0,1-1.9,1.77,2,2,0,0,1-1.62-.81c-.53-.59-.78-.65-1-.65-.62,0-1.53.46-1.53,3v5.91c0,1.27,0,2.11,1.59,2.21.68,0,1.12.06,1.12.52s-.4.44-.65.44c-.53,0-3.05-.12-3.61-.12s-2.74.12-3.24.12c-.22,0-.53,0-.53-.4s.22-.41.94-.5c1.36-.19,1.36-.53,1.36-2.27v-6c0-2-.4-2-1.58-2.08-.1,0-.41,0-.41-.34s.13-.35.5-.44a10.94,10.94,0,0,0,3.14-1.9c.07-.06.78-.78.94-.78.31,0,.34.25.34.53Z" transform="translate(-38.31 -30.48)"/><path class="cls-3" d="M311.22,96.63c0,1.4.19,2.83,1.81,2.83a3.5,3.5,0,0,0,2-.77.8.8,0,0,1,.34-.13.28.28,0,0,1,.25.28c0,.47-2,2.37-4.26,2.37a3.08,3.08,0,0,1-3.15-3.39V88.89c0-.41-.24-.59-.71-.56-.25,0-.47,0-.72,0s-.53,0-.53-.34.35-.5.47-.56l.84-.44a7.64,7.64,0,0,0,2.74-2.8c.12-.16.31-.37.53-.37s.4,0,.4.49v2.12c0,.59.13.72.78.72h1.77c.44,0,.66-.07.94-.07s.46.07.4.63-.15.65-.56.65-1.24-.06-2.74-.06c-.53,0-.59.06-.59.71Z" transform="translate(-38.31 -30.48)"/><path class="cls-3" d="M335.09,91.31c0-.9,0-3-2.62-3a3.78,3.78,0,0,0-2.67,1,2.47,2.47,0,0,0-.47,1.78v6.69c0,1.74,0,2.11,1.28,2.3.77.09.93.25.93.53s-.31.37-.53.37c-.5,0-1.49-.12-3.17-.12s-2.71.12-3.21.12c-.25,0-.53,0-.53-.4s.22-.41.94-.5c1.27-.19,1.27-.53,1.27-2.3V91.75c0-1.59-.43-3.33-2.58-3.33a3.19,3.19,0,0,0-2.68,1.06,2.38,2.38,0,0,0-.49,1.74v6.6c0,1.74,0,2.11,1.27,2.3.78.09.94.25.94.53s-.32.37-.6.37-1.55-.12-3.14-.12c-1.43,0-2.71.12-3.2.12-.25,0-.59,0-.59-.4s.28-.41,1-.5c1.34-.19,1.34-.53,1.34-2.27v-6c0-1.46,0-2.14-.94-2.21-.49,0-.87,0-.87-.43,0-.19.13-.31.47-.4a9.29,9.29,0,0,0,3.17-2c.22-.25.47-.56.69-.56s.34.28.34.56v1.53c0,.53,0,.62.13.62s.24-.16.43-.34c1.74-1.84,2.86-2,4.26-2a3.89,3.89,0,0,1,3.3,1.61c.44.69.5.75.62.75s.94-.78,1.09-.9a5.48,5.48,0,0,1,3.49-1.46c4,0,4.38,2.76,4.38,3.79v7.44c0,1.74,0,2.11,1.28,2.3.78.09.93.25.93.53s-.31.37-.53.37c-.46,0-1.55-.12-3.17-.12-1.77,0-2.71.12-3.21.12-.21,0-.52,0-.52-.4s.25-.41.93-.5c1.28-.19,1.28-.53,1.28-2.3Z" transform="translate(-38.31 -30.48)"/><path class="cls-3" d="M344.79,91.66c-.52,0-.8,0-.8,1.64,0,3.49,2.3,6.16,5.5,6.16a5.08,5.08,0,0,0,3.43-1.24c.46-.47.49-.5.68-.5a.27.27,0,0,1,.28.28c0,.47-2.18,3.21-6.13,3.21-4.11,0-7.22-2.71-7.22-7a7.42,7.42,0,0,1,7.72-7.59c4.7,0,5.69,3.45,5.69,4.51,0,.56-.34.56-.84.56Zm3.83-1c1.34,0,2.12-.68,2.12-1.49,0-1.84-2.12-1.9-2.58-1.9a3.81,3.81,0,0,0-3.77,3c0,.34.13.34.84.34Z" transform="translate(-38.31 -30.48)"/><path class="cls-3" d="M366.48,92.22c0-1.47,0-3.8-3.05-3.8a3.68,3.68,0,0,0-2.61,1.06,2.2,2.2,0,0,0-.59,1.74v6.6c0,1.74,0,2.11,1.34,2.3.77.09.93.25.93.53s-.31.37-.53.37c-.47,0-2.68-.12-3.26-.12s-2.71.12-3.21.12c-.25,0-.56,0-.56-.4s.25-.41.93-.5c1.34-.19,1.34-.53,1.34-2.27v-6c0-1.46,0-2.14-.93-2.21-.5,0-.84,0-.84-.43,0-.19.09-.31.43-.4a9.4,9.4,0,0,0,3.18-2c.21-.25.46-.56.68-.56s.34.28.34.56v1.53c0,.53,0,.62.13.62a.6.6,0,0,0,.43-.19c1.9-1.77,2.83-2.17,4.58-2.17,2.05,0,4.29,1.12,4.29,4v7.22c0,1.74,0,2.11,1.34,2.3.78.09.93.25.93.53s-.31.37-.53.37c-.46,0-2.74-.12-3.23-.12s-2.74.12-3.27.12c-.22,0-.53,0-.53-.4s.22-.41.93-.5c1.34-.19,1.34-.53,1.34-2.27Z" transform="translate(-38.31 -30.48)"/><path class="cls-3" d="M376.44,96.63c0,1.4.19,2.83,1.81,2.83a3.5,3.5,0,0,0,2-.77.75.75,0,0,1,.34-.13.28.28,0,0,1,.25.28c0,.47-2,2.37-4.27,2.37a3.08,3.08,0,0,1-3.14-3.39V88.89c0-.41-.25-.59-.71-.56-.25,0-.47,0-.72,0s-.53,0-.53-.34.34-.5.47-.56l.84-.44a7.64,7.64,0,0,0,2.74-2.8c.12-.16.31-.37.53-.37s.4,0,.4.49v2.12c0,.59.12.72.78.72H379c.44,0,.65-.07.93-.07s.47.07.41.63-.16.65-.56.65-1.24-.06-2.74-.06c-.53,0-.59.06-.59.71Z" transform="translate(-38.31 -30.48)"/><path class="cls-3" d="M395.08,101.36c-3.11,0-5.48-2.7-5.48-6,0-4.61,4.54-8.59,9.21-8.59a5.84,5.84,0,0,1,5.66,5.94C404.47,98,398.88,101.36,395.08,101.36Zm3.76-13.94c-4,0-6.31,6.32-6.31,9.9,0,1.31.43,3.36,2.61,3.36a4.13,4.13,0,0,0,3.21-1.53,14.33,14.33,0,0,0,3.2-8.3C401.55,89.35,401,87.42,398.84,87.42Z" transform="translate(-38.31 -30.48)"/><path class="cls-3" d="M412.13,88.14l-1.12,4c-3.3,11.86-3.67,12.88-5.66,14.47a6,6,0,0,1-3.71,1.43c-1.52,0-2.64-.9-2.64-1.9a1.28,1.28,0,0,1,1.34-1.3c1,0,1.24.71,1.46,1.34.09.31.31.93.84.93,1.24,0,2-2.8,2.4-4.33,1.8-6.72,2.27-8.46,4.13-14.65H406.9c-.18,0-.21-.16-.21-.28s.15-.75.52-.75h2.27a9.24,9.24,0,0,1,2.4-4.13A7.92,7.92,0,0,1,417,80.7c1.25,0,2.3.6,2.3,1.59a1.41,1.41,0,0,1-1.43,1.37,2.2,2.2,0,0,1-1.8-1.18c-.22-.38-.41-.69-.75-.69-1.4,0-2.39,3.67-2.83,5.32h3c.18,0,.21.16.21.28s-.15.75-.49.75Z" transform="translate(-38.31 -30.48)"/><path class="cls-3" d="M434.53,99.53c-.28.74-.4,1-.74,1s-.5-.24-.72-.77l-6.16-15h-.06c-.22,3.45-.44,7-.44,10.21,0,4.88.28,5,1.84,5.07.71,0,1.21,0,1.21.46s-.56.47-.9.47-1.46-.12-2.8-.12c-1.09,0-2.3.12-2.8.12-.22,0-.53-.06-.53-.4s.31-.44,1.18-.56c1-.16,1.5-.35,1.56-2.52,0-.22.65-9.4.65-13.51,0-1.52-.06-1.52-1.46-1.55-1.06,0-1.25-.22-1.25-.56s.22-.41.69-.41,2.05.13,2.89.13c1.12,0,1.77-.13,2.15-.13s.56,0,.87.75l5.26,13,4.94-12.63c.41-1,.75-1.09,1.25-1.09.68,0,1.9.13,2.58.13s1.53-.13,1.87-.13.78,0,.78.41-.28.4-1.16.46c-1.46.1-1.52.5-1.46,2.15l.44,13.22c0,1.93.09,2.37,1.46,2.37.65,0,1,.12,1,.46s-.49.44-.8.44c-.47,0-2.12-.12-3.27-.12-1.56,0-3.24.12-3.86.12-.22,0-.56,0-.56-.4s.28-.47,1.22-.53c1.43-.13,1.46-.9,1.43-2.37l-.25-13.44h-.07Z" transform="translate(-38.31 -30.48)"/><path class="cls-3" d="M454.26,101.21a7.32,7.32,0,1,1-.13-14.62c3.55,0,7.5,2.33,7.5,7A7.36,7.36,0,0,1,454.26,101.21Zm-.09-.72c2.27,0,4.23-2.89,4.23-6.56,0-2.15-1.12-6.63-4.51-6.63-2.24,0-4.08,2.24-4.08,6S451.71,100.49,454.17,100.49Z" transform="translate(-38.31 -30.48)"/><path class="cls-3" d="M467.7,96.63c0,1.4.19,2.83,1.81,2.83a3.5,3.5,0,0,0,2-.77.8.8,0,0,1,.34-.13.27.27,0,0,1,.25.28c0,.47-2,2.37-4.26,2.37a3.07,3.07,0,0,1-3.14-3.39V88.89c0-.41-.25-.59-.72-.56-.25,0-.47,0-.72,0s-.53,0-.53-.34.35-.5.47-.56L464,87a7.64,7.64,0,0,0,2.74-2.8c.12-.16.31-.37.53-.37s.4,0,.4.49v2.12c0,.59.13.72.78.72h1.77c.44,0,.66-.07.94-.07s.46.07.4.63-.15.65-.56.65-1.24-.06-2.74-.06c-.52,0-.59.06-.59.71Z" transform="translate(-38.31 -30.48)"/><path class="cls-3" d="M480,101.21a7.32,7.32,0,1,1-.12-14.62c3.55,0,7.5,2.33,7.5,7A7.37,7.37,0,0,1,480,101.21Zm-.09-.72c2.27,0,4.23-2.89,4.23-6.56,0-2.15-1.12-6.63-4.51-6.63-2.24,0-4.08,2.24-4.08,6S477.44,100.49,479.9,100.49Z" transform="translate(-38.31 -30.48)"/><path class="cls-3" d="M493.71,88.39c0,.19,0,.44.19.44s.25-.19.28-.25a5.15,5.15,0,0,1,3.39-1.87,2,2,0,0,1,2.24,1.87,1.8,1.8,0,0,1-1.89,1.77,2,2,0,0,1-1.62-.81c-.53-.59-.78-.65-1-.65-.62,0-1.52.46-1.52,3v5.91c0,1.27,0,2.11,1.59,2.21.68,0,1.12.06,1.12.52s-.41.44-.66.44c-.53,0-3.05-.12-3.61-.12s-2.73.12-3.23.12c-.22,0-.53,0-.53-.4s.22-.41.93-.5c1.37-.19,1.37-.53,1.37-2.27v-6c0-2-.4-2-1.58-2.08-.1,0-.41,0-.41-.34s.12-.35.5-.44a11.08,11.08,0,0,0,3.14-1.9c.06-.06.78-.78.93-.78.31,0,.34.25.34.53Z" transform="translate(-38.31 -30.48)"/><path class="cls-3" d="M514.44,100.9c-.06.18-.28.59-.53.59s-.37-.16-.59-.66l-6.81-16.27c-.81-2-1.09-2-2-2.14-.69-.07-1-.1-1-.5s.28-.41.5-.41c.56,0,2.21.13,4.38.13,1.75,0,2.71-.13,3.33-.13.28,0,.59.1.59.44s-.28.4-.52.4c-1.47.19-1.9.22-1.9.91a10.72,10.72,0,0,0,.65,1.64l4.67,11.17,4.17-10.61a5.79,5.79,0,0,0,.56-2.08c0-.75-.75-.9-1.28-.93-.93,0-1.34-.07-1.34-.5s.5-.44.84-.44c.19,0,1.65.13,2.65.13.84,0,2.3-.13,2.77-.13.15,0,.56,0,.56.41s-.13.4-1.34.59c-.75.09-1.09.5-2,2.83Z" transform="translate(-38.31 -30.48)"/><path class="cls-3" d="M524.93,91.66c-.53,0-.81,0-.81,1.64,0,3.49,2.3,6.16,5.51,6.16a5.05,5.05,0,0,0,3.42-1.24c.47-.47.5-.5.68-.5A.27.27,0,0,1,534,98c0,.47-2.17,3.21-6.13,3.21s-7.21-2.71-7.21-7a7.41,7.41,0,0,1,7.71-7.59c4.7,0,5.7,3.45,5.7,4.51,0,.56-.35.56-.84.56Zm3.83-1c1.33,0,2.11-.68,2.11-1.49,0-1.84-2.11-1.9-2.58-1.9a3.8,3.8,0,0,0-3.76,3c0,.34.12.34.84.34Z" transform="translate(-38.31 -30.48)"/><path class="cls-3" d="M536.72,85.15c0-2.21-.06-2.52-1.59-2.73-.24,0-.43-.13-.43-.44a.46.46,0,0,1,.43-.44,10.46,10.46,0,0,0,3.33-1.12,2.85,2.85,0,0,1,.94-.4c.43,0,.43.31.43.47a15.81,15.81,0,0,0-.09,2.08v5.85c0,.28,0,.53.19.53a.36.36,0,0,0,.21-.12c1.9-1.84,3.24-2.24,4.64-2.24,4.42,0,4.42,3.32,4.42,4.57v6.69c0,1.74,0,2.11,1.34,2.3.77.09.93.25.93.5s-.09.37-1,.37c-.4,0-.84-.12-2.8-.12-1.33,0-2.73.12-3.23.12-.22,0-.53,0-.53-.4s.22-.41.93-.5c1.34-.19,1.34-.53,1.34-2.27V91.66c0-1,0-3.43-2.83-3.43-.25,0-3.61,0-3.61,3.11v6.51c0,1.74,0,2.08,1.34,2.27.78.09.93.25.93.53s-.31.37-.53.37c-.5,0-1.86-.12-3.27-.12s-2.73.12-3.23.12c-.22,0-.53,0-.53-.4s.22-.41.93-.5c1.34-.19,1.34-.53,1.34-2.27Z" transform="translate(-38.31 -30.48)"/><path class="cls-3" d="M554.08,92c0-1.59-.28-2-1.4-2.09-.09,0-.59,0-.59-.4s.13-.38.5-.5a10.14,10.14,0,0,0,2.74-1.27c.22-.16,1.18-1,1.43-1s.34.4.34,1.09v10c0,1.71,0,2.08,1.34,2.27.78.09.93.25.93.53s-.31.37-.53.37c-.46,0-1.8-.12-3.23-.12s-2.74.12-3.27.12c-.22,0-.53,0-.53-.4s.25-.41.94-.5c1.33-.19,1.33-.53,1.33-2.24Zm1.5-7.16a1.7,1.7,0,0,1-1.74-1.68,1.73,1.73,0,1,1,3.45,0A1.7,1.7,0,0,1,555.58,84.81Z" transform="translate(-38.31 -30.48)"/><path class="cls-3" d="M568.86,99.56a6,6,0,0,0,3.52-1.12c.06,0,.22-.16.34-.16a.31.31,0,0,1,.28.31c0,.63-2.33,2.62-5.66,2.62-3.55,0-7.75-2.09-7.75-6.91,0-5,4.61-7.71,8.46-7.71.5,0,4.8.24,4.8,2,0,.43-.16,2.18-.94,2.18-.53,0-.9-.5-1.93-1.87s-1.55-1.68-2.42-1.68c-1.37,0-4.55,1.56-4.55,6.41A6,6,0,0,0,568.86,99.56Z" transform="translate(-38.31 -30.48)"/><path class="cls-3" d="M576,84.69c0-.94,0-2-1.12-2.09-.56-.06-.72-.06-.72-.4s.09-.31,1-.53a15.92,15.92,0,0,0,2.67-.93c.75-.38.81-.41,1-.41.34,0,.34.34.34.65s-.13,2.34-.13,2.68V97.85c0,1.74,0,2.08,1.34,2.27.78.09.94.25.94.53s-.31.37-.53.37c-.84,0-1.47-.12-3.27-.12-2.05,0-2.43.12-3.08.12-.37,0-.68,0-.68-.4s.24-.41.93-.5c1.34-.19,1.34-.53,1.34-2.24Z" transform="translate(-38.31 -30.48)"/><path class="cls-3" d="M585.74,91.66c-.53,0-.81,0-.81,1.64,0,3.49,2.3,6.16,5.5,6.16a5.08,5.08,0,0,0,3.43-1.24c.46-.47.49-.5.68-.5a.27.27,0,0,1,.28.28c0,.47-2.18,3.21-6.13,3.21-4.1,0-7.22-2.71-7.22-7a7.42,7.42,0,0,1,7.72-7.59c4.7,0,5.69,3.45,5.69,4.51,0,.56-.34.56-.84.56Zm3.82-1c1.34,0,2.12-.68,2.12-1.49,0-1.84-2.12-1.9-2.58-1.9a3.81,3.81,0,0,0-3.77,3c0,.34.13.34.84.34Z" transform="translate(-38.31 -30.48)"/><path class="cls-3" d="M596.78,96.85c0-.09,0-.56.44-.56s.49.28.65.87,1.06,3.27,3.58,3.27c1.4,0,3-.93,3-2.55s-1.43-2.37-3.58-3.21c-1.84-.71-4-1.58-4-3.82,0-1.78,1.4-4.26,5.54-4.26.47,0,2.77.34,3,.34.78.09.78.43.78.93l-.13,1.84c0,.12-.06.49-.37.49s-.37-.06-.56-.65A3.25,3.25,0,0,0,602,87.3c-1.34,0-2.49.75-2.49,1.87s.69,1.52,3.83,2.83c1,.46,3.67,1.52,3.67,4.2,0,2.33-1.9,5-6,5a10.59,10.59,0,0,1-3.92-.87c-.37-.19-.37-.44-.37-1.19Z" transform="translate(-38.31 -30.48)"/></svg>